<svg width="18" height="18" viewBox="0 0 18 18" fill="none" xmlns="http://www.w3.org/2000/svg">
<g clip-path="url(#clip0_64_245)">
<path d="M8.59245 6.61068C9.51823 6.65408 9.75691 7.44245 9.77138 7.81131H11.066C11.0082 6.37924 9.98836 5.50408 8.57075 5.50408C6.97232 5.50408 5.78616 6.50943 5.78616 8.7805C5.78616 10.1836 6.4588 11.8472 8.56351 11.8472C10.1692 11.8472 11.0299 10.6538 11.0516 9.71352H9.75691C9.73521 10.1402 9.43144 10.7116 8.57798 10.755C7.6305 10.7261 7.2327 9.98836 7.2327 8.7805C7.2327 6.69024 8.15848 6.62515 8.59245 6.61068ZM8.67924 1.44653C4.68678 1.44653 1.44653 4.68678 1.44653 8.67924C1.44653 12.6717 4.68678 15.9119 8.67924 15.9119C12.6717 15.9119 15.9119 12.6717 15.9119 8.67924C15.9119 4.68678 12.6717 1.44653 8.67924 1.44653ZM8.67924 14.4654C5.48962 14.4654 2.89307 11.8689 2.89307 8.67924C2.89307 5.48962 5.48962 2.89307 8.67924 2.89307C11.8689 2.89307 14.4654 5.48962 14.4654 8.67924C14.4654 11.8689 11.8689 14.4654 8.67924 14.4654Z" fill="#8D8D8D"/>
</g>
<defs>
<clipPath id="clip0_64_245">
<rect width="17.3585" height="17.3585" fill="white"/>
</clipPath>
</defs>
</svg>
